# xmcd CD database file
#
# Track frame offsets:
#	150
#	12754
#	24760
#	37152
#	50392
#	63037
#	75379
#	88488
#	100965
#	113716
#	127126
#	139517
#	152064
#	164489
#	179595
#	190942
#
# Disc length: 2710 seconds
#
# Revision: 3
# Processed by: cddbd v1.5.2PL0 Copyright (c) Steve Scherf et al.
# Submitted via: CDex 1.70beta2
#
DISCID=cf0a9410
DTITLE=Sonny Boy  Williamson - Down South - Disc 1
DYEAR=1900
DGENRE=Blues
TTITLE0=Black Gal Blues
TTITLE1=Bad Luck Blues
TTITLE2=My Black Name Blues
TTITLE3=Stop Breaking Down
TTITLE4=Train Fare Blues
TTITLE5=Check Up On My Baby Blues
TTITLE6=HooDoo Hoodoo
TTITLE7=Shake The Boogie
TTITLE8=Welfare Store Blues
TTITLE9=Better Cut That Out
TTITLE10=My Black Name Blues (2)
TTITLE11=Good Gravy
TTITLE12=Good Gal Blues
TTITLE13=Love Me Baby
TTITLE14=Black Panter Blues
TTITLE15=I Have Got To Go
EXTD=
EXTT0=
EXTT1=
EXTT2=
EXTT3=
EXTT4=
EXTT5=
EXTT6=
EXTT7=
EXTT8=
EXTT9=
EXTT10=
EXTT11=
EXTT12=
EXTT13=
EXTT14=
EXTT15=
PLAYORDER=
